# xmcd
#
# Track frame offsets: 
#        150
#        15196
#        31539
#        45557
#        63670
#        77540
#        88752
#        106194
#        121448
#        138117
#        151551
#        163903
#
# Disc length: 2390 seconds
#
# Revision: 1
# Processed by: cddbd v1.5.2PL0 Copyright (c) Steve Scherf et al.
# Submitted via: ExactAudioCopy v1.0b3
#
DISCID=7f09540c
DTITLE=Milionário e José Rico - Escravo do amor - vol 11 - Escravo do 
DTITLE=Amor - vol 11
DYEAR=1900
DGENRE=Sertanejo
TTITLE0=Escravo do amor
TTITLE1=Sonho de um caminhoneiro
TTITLE2=Mundo Fantasia
TTITLE3=Compreensão
TTITLE4=Rotina da vida
TTITLE5=Reconciliação
TTITLE6=Homens
TTITLE7=Ninguém é de ninguém
TTITLE8=Conselho de amigo
TTITLE9=Pombinha mensageira
TTITLE10=Águas Passadas
TTITLE11=Oração do sertanejo
EXTD=Este CD foi reproduzido a partir de matrizes\noriginais e remaste
EXTD=rizado. Eventuais alterações\nna qualidade de som são inerentes a
EXTD=o\nequipamento e as técnicas de gravação da\népoca.
EXTT0=
EXTT1=
EXTT2=
EXTT3=
EXTT4=
EXTT5=
EXTT6=
EXTT7=
EXTT8=
EXTT9=
EXTT10=
EXTT11=
PLAYORDER=
